<?xml version="1.0" standalone="no"?><!DOCTYPE svg PUBLIC "-//W3C//DTD SVG 1.1//EN" "http://www.w3.org/Graphics/SVG/1.1/DTD/svg11.dtd"><svg t="1597930177409" class="icon" viewBox="0 0 1024 1024" version="1.1" xmlns="http://www.w3.org/2000/svg" p-id="12573" xmlns:xlink="http://www.w3.org/1999/xlink" width="64" height="64"><defs><style type="text/css"></style></defs><path d="M916.48 124.16l-583.68 0c-24.03328 0-43.52 19.48672-43.52 43.52 0 24.03328 19.48672 43.52 43.52 43.52l583.68 0c24.03328 0 43.52-19.48672 43.52-43.52C960 143.64672 940.51328 124.16 916.48 124.16z" p-id="12574" fill="#1296db"></path><path d="M916.48 349.44l-583.68 0c-24.03328 0-43.52 19.48672-43.52 43.52 0 24.03328 19.48672 43.52 43.52 43.52l583.68 0c24.03328 0 43.52-19.48672 43.52-43.52C960 368.92672 940.51328 349.44 916.48 349.44z" p-id="12575" fill="#1296db"></path><path d="M916.48 574.72l-583.68 0c-24.03328 0-43.52 19.48672-43.52 43.52 0 24.03328 19.48672 43.52 43.52 43.52l583.68 0c24.03328 0 43.52-19.48672 43.52-43.52C960 594.20672 940.51328 574.72 916.48 574.72z" p-id="12576" fill="#1296db"></path><path d="M916.48 812.8l-583.68 0c-24.03328 0-43.52 19.48672-43.52 43.52 0 24.03328 19.48672 43.52 43.52 43.52l583.68 0c24.03328 0 43.52-19.48672 43.52-43.52C960 832.28672 940.51328 812.8 916.48 812.8z" p-id="12577" fill="#1296db"></path><path d="M105.80992 167.68m-43.52 0a4.25 4.25 0 1 0 87.04 0 4.25 4.25 0 1 0-87.04 0Z" p-id="12578" fill="#1296db"></path><path d="M105.80992 392.96m-43.52 0a4.25 4.25 0 1 0 87.04 0 4.25 4.25 0 1 0-87.04 0Z" p-id="12579" fill="#1296db"></path><path d="M105.80992 618.24m-43.52 0a4.25 4.25 0 1 0 87.04 0 4.25 4.25 0 1 0-87.04 0Z" p-id="12580" fill="#1296db"></path><path d="M105.80992 856.32m-43.52 0a4.25 4.25 0 1 0 87.04 0 4.25 4.25 0 1 0-87.04 0Z" p-id="12581" fill="#1296db"></path></svg>