<?xml version="1.0" standalone="no"?><!DOCTYPE svg PUBLIC "-//W3C//DTD SVG 1.1//EN" "http://www.w3.org/Graphics/SVG/1.1/DTD/svg11.dtd"><svg t="1597930378340" class="icon" viewBox="0 0 1024 1024" version="1.1" xmlns="http://www.w3.org/2000/svg" p-id="14749" xmlns:xlink="http://www.w3.org/1999/xlink" width="64" height="64"><defs><style type="text/css"></style></defs><path d="M389.901663 465.341331l425.137677 0 0 55.709813-425.137677 0 0-55.709813Z" p-id="14750" fill="#1296db"></path><path d="M389.901663 266.239713l425.137677 0 0 55.709813-425.137677 0 0-55.709813Z" p-id="14751" fill="#1296db"></path><path d="M389.901663 664.448064l425.137677 0 0 55.709813-425.137677 0 0-55.709813Z" p-id="14752" fill="#1296db"></path><path d="M240.576729 664.448064l101.595886 0 0 55.709813-101.595886 0 0-55.709813Z" p-id="14753" fill="#1296db"></path><path d="M926.00871 44.194548 129.605312 44.194548c-28.010961 0-50.79999 22.788006-50.79999 50.798966l0 796.409538c0 28.009937 22.789029 50.798966 50.79999 50.798966l796.408515 0c28.008914 0 50.79692-22.789029 50.79692-50.798966L976.810746 94.992491C976.810746 66.982554 954.020694 44.194548 926.00871 44.194548zM924.99052 96.015797l0 794.362926-794.361903 0L130.628618 96.015797 924.99052 96.015797z" p-id="14754" fill="#1296db"></path><path d="M240.576729 465.341331l101.595886 0 0 55.709813-101.595886 0 0-55.709813Z" p-id="14755" fill="#1296db"></path><path d="M240.576729 266.239713l101.595886 0 0 55.709813-101.595886 0 0-55.709813Z" p-id="14756" fill="#1296db"></path></svg>