<?xml version="1.0" standalone="no"?><!DOCTYPE svg PUBLIC "-//W3C//DTD SVG 1.1//EN" "http://www.w3.org/Graphics/SVG/1.1/DTD/svg11.dtd"><svg t="1597903389461" class="icon" viewBox="0 0 1024 1024" version="1.1" xmlns="http://www.w3.org/2000/svg" p-id="8053" xmlns:xlink="http://www.w3.org/1999/xlink" width="64" height="64"><defs><style type="text/css"></style></defs><path d="M1009.10502 63.657697L960.478798 15.014413a51.031941 51.031941 0 0 0-72.017995 0.017061l-53.335289 53.335289H0v955.462619h955.462619v-834.494227l5.203859-5.203859 48.438542-48.438542a50.997817 50.997817 0 0 0 0-72.035057zM342.038556 627.1759l54.9391 54.939101-75.549794 20.610693 20.610694-75.549794z m546.234567-418.919173L815.896829 135.880434l24.125431-24.125431 72.393356 72.376293-24.142493 24.125431z m-24.125432 24.125431L429.821684 666.708166l-72.376294-72.376293L791.771398 160.005865l72.376293 72.376293zM921.338954 223.45882v766.246897H34.123665v-887.215289h766.878184l-479.744605 479.778729-3.207625 3.207625-36.188146 132.723994-20.917807 20.917807a17.044771 17.044771 0 1 0 24.125431 24.125431l20.917807-20.917806 132.723995-36.222271 449.596347-449.579286 7.626639-7.626639L921.338954 223.45882z m63.640635-111.891497l-48.438542 48.438542-72.393356-72.393355 48.438543-48.438543a16.840029 16.840029 0 0 1 23.767133 0l48.626222 48.626223a16.822967 16.822967 0 0 1 0 23.767133z" fill="#1296db" p-id="8054"></path></svg>