<?xml version="1.0" standalone="no"?><!DOCTYPE svg PUBLIC "-//W3C//DTD SVG 1.1//EN" "http://www.w3.org/Graphics/SVG/1.1/DTD/svg11.dtd"><svg t="1601731031512" class="icon" viewBox="0 0 1024 1024" version="1.1" xmlns="http://www.w3.org/2000/svg" p-id="3478" xmlns:xlink="http://www.w3.org/1999/xlink" width="32" height="32"><defs><style type="text/css"></style></defs><path d="M512 238.92992c-175.13472 0-327.66976 109.99808-409.6 273.07008 81.93024 163.10272 234.46528 273.07008 409.6 273.07008S839.66976 675.10272 921.6 512c-81.93024-163.072-234.46528-273.07008-409.6-273.07008z m0 443.74016c-94.26944 0-170.67008-76.40064-170.67008-170.67008S417.73056 341.32992 512 341.32992 682.67008 417.73056 682.67008 512 606.26944 682.67008 512 682.67008z" p-id="3479" fill="#1296db"></path><path d="M512 512m-102.4 0a102.4 102.4 0 1 0 204.8 0 102.4 102.4 0 1 0-204.8 0Z" p-id="3480" fill="#1296db"></path></svg>