<?xml version="1.0" standalone="no"?><!DOCTYPE svg PUBLIC "-//W3C//DTD SVG 1.1//EN" "http://www.w3.org/Graphics/SVG/1.1/DTD/svg11.dtd"><svg t="1601730987764" class="icon" viewBox="0 0 1024 1024" version="1.1" xmlns="http://www.w3.org/2000/svg" p-id="3281" xmlns:xlink="http://www.w3.org/1999/xlink" width="32" height="32"><defs><style type="text/css"></style></defs><path d="M770.92864 204.8l-76.56448 76.57472c-56.10496-27.19744-117.63712-42.4448-182.3744-42.4448-175.13472 0-327.66976 109.99808-409.6 273.07008 40.27392 80.16896 97.77152 147.16928 166.47168 194.89792L204.8 770.92864 253.07136 819.2l76.43136-76.43136 88.50432-88.4736h-0.03072L819.2 253.07136 770.92864 204.8zM512 409.6c-56.56576 0-102.4 45.83424-102.4 102.4 0 15.7696 3.87072 30.5664 10.22976 43.89888l-49.96096 49.9712c-17.8688-26.94144-28.53888-59.07456-28.53888-93.87008 0-94.26944 76.40064-170.67008 170.67008-170.67008 34.79552 0 66.92864 10.63936 93.87008 28.53888l-49.9712 49.96096C542.52544 413.47072 527.80032 409.6 512 409.6zM808.63232 360.17152L680.30464 488.4992c1.06496 7.77216 2.36544 15.47264 2.36544 23.5008 0 94.26944-76.40064 170.67008-170.67008 170.67008-8.06912 0-15.72864-1.30048-23.5008-2.36544l-88.90368 88.9344c36.03456 10.16832 73.60512 15.84128 112.40448 15.84128 175.13472 0 327.66976-109.96736 409.6-273.07008-29.29664-58.33728-67.76832-109.71136-112.96768-151.83872z" p-id="3282" fill="#1296db"></path></svg>