<?xml version="1.0" standalone="no"?><!DOCTYPE svg PUBLIC "-//W3C//DTD SVG 1.1//EN" "http://www.w3.org/Graphics/SVG/1.1/DTD/svg11.dtd"><svg t="1597903155728" class="icon" viewBox="0 0 1024 1024" version="1.1" xmlns="http://www.w3.org/2000/svg" p-id="6939" xmlns:xlink="http://www.w3.org/1999/xlink" width="64" height="64"><defs><style type="text/css"></style></defs><path d="M1018.77497 399.936172a21.706865 21.706865 0 0 0-16.4938-7.571765h-45.892073V149.093689a30.252875 30.252875 0 0 0-30.218691-30.218691H402.043618l-42.473669-70.778054a30.338335 30.338335 0 0 0-25.911502-14.682045H97.822757a30.252875 30.252875 0 0 0-30.218691 30.218691v328.713725H21.729085a21.706865 21.706865 0 0 0-21.484669 24.971441l84.058553 554.824056a21.621405 21.621405 0 0 0 21.467577 18.425197h812.452071c10.802157 0 19.826743-7.742685 21.484669-18.476473l84.041461-554.704412a21.655589 21.655589 0 0 0-4.973777-17.450952zM101.805198 67.61603H331.419392l42.473669 70.778055c5.41817 9.058771 15.348634 14.682045 25.911502 14.682045h522.417587v239.288277h-34.18404v-119.644139h-752.048873v119.644139h-34.184039v-324.748377z m752.048872 324.748377h-683.680793v-85.460099h683.680793v85.460099z m53.668942 564.036655H116.487243l-80.264125-529.852615H987.80423l-80.281218 529.852615z" fill="#1296db" p-id="6940"></path></svg>