<?xml version="1.0" standalone="no"?><!DOCTYPE svg PUBLIC "-//W3C//DTD SVG 1.1//EN" "http://www.w3.org/Graphics/SVG/1.1/DTD/svg11.dtd"><svg t="1598607108220" class="icon" viewBox="0 0 1024 1024" version="1.1" xmlns="http://www.w3.org/2000/svg" p-id="2105" xmlns:xlink="http://www.w3.org/1999/xlink" width="64" height="64"><defs><style type="text/css"></style></defs><path d="M947.2 172.032c-4.096-26.624-25.6-48.128-54.272-53.248C763.904 101.376 635.904 92.16 512 92.16s-251.904 9.216-379.904 26.624c-28.672 3.072-50.176 24.576-55.296 53.248C59.392 284.672 51.2 395.264 51.2 512s8.192 227.328 25.6 339.968c4.096 26.624 25.6 48.128 54.272 53.248C260.096 922.624 388.096 931.84 512 931.84s251.904-9.216 379.904-26.624c27.648-3.072 50.176-24.576 55.296-53.248C964.608 739.328 972.8 628.736 972.8 512s-8.192-227.328-25.6-339.968z m-829.44 6.144c2.048-10.24 9.216-17.408 18.432-18.432h1.024C264.192 142.336 390.144 133.12 512 133.12s247.808 9.216 374.784 26.624c10.24 2.048 18.432 9.216 20.48 18.432C923.648 288.768 931.84 397.312 931.84 512c0 59.392-2.048 117.76-7.168 175.104-19.456-29.696-40.96-56.32-65.536-80.896-33.792-34.816-70.656-62.464-108.544-80.896-21.504-11.264-47.104-10.24-68.608 2.048-14.336 8.192-28.672 19.456-45.056 35.84-10.24 10.24-18.432 20.48-25.6 29.696l-4.096 4.096c-2.048 1.024-4.096 2.048-7.168 2.048-1.024 0-4.096-1.024-6.144-4.096-28.672-35.84-57.344-68.608-87.04-98.304-31.744-31.744-66.56-62.464-107.52-94.208-23.552-18.432-56.32-19.456-81.92-4.096-51.2 31.744-94.208 65.536-133.12 103.424-32.768 32.768-63.488 70.656-90.112 112.64-1.024-32.768-2.048-67.584-2.048-102.4 0-114.688 8.192-223.232 25.6-333.824z m769.024 686.08C759.808 881.664 633.856 890.88 512 890.88s-247.808-9.216-374.784-26.624c-10.24-2.048-18.432-9.216-20.48-18.432-8.192-53.248-14.336-105.472-18.432-158.72l1.024-1.024c33.792-60.416 71.68-110.592 114.688-154.624 35.84-35.84 76.8-67.584 124.928-97.28 11.264-7.168 24.576-6.144 34.816 2.048 38.912 30.72 73.728 60.416 103.424 90.112 27.648 27.648 56.32 59.392 82.944 94.208 17.408 22.528 49.152 26.624 71.68 9.216l2.048-2.048 6.144-6.144c1.024-1.024 2.048-2.048 2.048-3.072 6.144-8.192 13.312-16.384 22.528-25.6 13.312-13.312 25.6-22.528 36.864-29.696 9.216-6.144 20.48-6.144 29.696-1.024 33.792 16.384 66.56 40.96 98.304 72.704 34.816 34.816 63.488 74.752 87.04 120.832 0 0 0 1.024 1.024 1.024-3.072 29.696-7.168 59.392-12.288 89.088 0 8.192-6.144 17.408-18.432 18.432zM752.64 409.6c53.248 0 97.28-44.032 97.28-97.28S805.888 215.04 752.64 215.04 655.36 259.072 655.36 312.32s44.032 97.28 97.28 97.28z m0-153.6c30.72 0 56.32 25.6 56.32 56.32S783.36 368.64 752.64 368.64 696.32 343.04 696.32 312.32s25.6-56.32 56.32-56.32z" p-id="2106" fill="#1296db"></path></svg>