<?xml version="1.0" standalone="no"?><!DOCTYPE svg PUBLIC "-//W3C//DTD SVG 1.1//EN" "http://www.w3.org/Graphics/SVG/1.1/DTD/svg11.dtd"><svg t="1597903255898" class="icon" viewBox="0 0 1024 1024" version="1.1" xmlns="http://www.w3.org/2000/svg" p-id="7326" xmlns:xlink="http://www.w3.org/1999/xlink" width="64" height="64"><defs><style type="text/css"></style></defs><path d="M645.668571 92.196571a18.285714 18.285714 0 1 0-10.24 35.108572C821.138286 181.613714 950.857143 354.834286 950.857143 548.571429c0 241.974857-196.882286 438.857143-438.857143 438.857142S73.142857 790.546286 73.142857 548.571429C73.142857 354.596571 203.062857 181.302857 389.101714 127.140571a18.285714 18.285714 0 0 0-10.203428-35.108571C177.334857 150.692571 36.571429 338.432 36.571429 548.571429c0 262.162286 213.266286 475.428571 475.428571 475.428571s475.428571-213.266286 475.428571-475.428571c0-209.883429-140.544-397.531429-341.76-456.374858z" fill="#1296db" p-id="7327"></path><path d="M512 493.714286a18.285714 18.285714 0 0 0 18.285714-18.285715V18.285714a18.285714 18.285714 0 1 0-36.571428 0v457.142857a18.285714 18.285714 0 0 0 18.285714 18.285715z" fill="#1296db" p-id="7328"></path></svg>