<?xml version="1.0" standalone="no"?><!DOCTYPE svg PUBLIC "-//W3C//DTD SVG 1.1//EN" "http://www.w3.org/Graphics/SVG/1.1/DTD/svg11.dtd"><svg t="1597903317145" class="icon" viewBox="0 0 1024 1024" version="1.1" xmlns="http://www.w3.org/2000/svg" p-id="7520" xmlns:xlink="http://www.w3.org/1999/xlink" width="64" height="64"><defs><style type="text/css"></style></defs><path d="M995.181714 518.985143a18.304 18.304 0 0 0-3.968-19.949714L771.803429 279.643429a18.267429 18.267429 0 1 0-25.856 25.856L934.162286 493.714286H374.875429a18.285714 18.285714 0 1 0 0 36.571428h559.286857L745.947429 718.500571a18.267429 18.267429 0 1 0 25.856 25.856l219.410285-219.410285c1.682286-1.682286 3.035429-3.712 3.968-5.961143z" fill="#1296db" p-id="7521"></path><path d="M667.446857 603.428571a18.285714 18.285714 0 0 0-18.285714 18.285715v365.714285h-585.142857V36.571429h585.142857v365.714285a18.285714 18.285714 0 1 0 36.571428 0V18.285714a18.285714 18.285714 0 0 0-18.285714-18.285714h-621.714286a18.285714 18.285714 0 0 0-18.285714 18.285714v987.428572a18.285714 18.285714 0 0 0 18.285714 18.285714h621.714286a18.285714 18.285714 0 0 0 18.285714-18.285714V621.714286a18.285714 18.285714 0 0 0-18.285714-18.285715z" fill="#1296db" p-id="7522"></path></svg>