<?xml version="1.0" standalone="no"?><!DOCTYPE svg PUBLIC "-//W3C//DTD SVG 1.1//EN" "http://www.w3.org/Graphics/SVG/1.1/DTD/svg11.dtd"><svg t="1597903554213" class="icon" viewBox="0 0 1024 1024" version="1.1" xmlns="http://www.w3.org/2000/svg" p-id="8440" xmlns:xlink="http://www.w3.org/1999/xlink" width="64" height="64"><defs><style type="text/css"></style></defs><path d="M596.053333 341.333333l-145.288533 105.659734a17.0496 17.0496 0 1 0 20.0704 27.5968L677.546667 324.266667l-206.711467-150.340267a17.015467 17.015467 0 0 0-23.825067 3.771733 17.032533 17.032533 0 0 0 3.771734 23.825067L596.053333 307.2H392.533333c-122.333867 0-221.866667 99.5328-221.866666 221.866667a17.066667 17.066667 0 1 0 34.133333 0c0-103.509333 84.224-187.733333 187.733333-187.733334h203.52z" fill="#1296db" p-id="8441"></path><path d="M512 0C229.6832 0 0 229.6832 0 512s229.6832 512 512 512 512-229.6832 512-512S794.3168 0 512 0z m0 989.866667C248.507733 989.866667 34.133333 775.492267 34.133333 512S248.507733 34.133333 512 34.133333s477.866667 214.3744 477.866667 477.866667-214.3744 477.866667-477.866667 477.866667z" fill="#1296db" p-id="8442"></path><path d="M819.2 477.866667a17.066667 17.066667 0 0 0-17.066667 17.066666c0 103.509333-84.224 187.733333-187.733333 187.733334H410.88l145.288533-105.659734a17.0496 17.0496 0 1 0-20.053333-27.5968L329.386667 699.733333l206.711466 150.340267a17.0496 17.0496 0 0 0 20.0704-27.5968L410.88 716.8H614.4c122.333867 0 221.866667-99.5328 221.866667-221.866667a17.066667 17.066667 0 0 0-17.066667-17.066666z" fill="#1296db" p-id="8443"></path></svg>