<?xml version="1.0" standalone="no"?><!DOCTYPE svg PUBLIC "-//W3C//DTD SVG 1.1//EN" "http://www.w3.org/Graphics/SVG/1.1/DTD/svg11.dtd"><svg t="1600053868643" class="icon" viewBox="0 0 1024 1024" version="1.1" xmlns="http://www.w3.org/2000/svg" p-id="1100" xmlns:xlink="http://www.w3.org/1999/xlink" width="200" height="200"><defs><style type="text/css"></style></defs><path d="M512 0C229.2352 0 0 229.2352 0 512s229.2352 512 512 512 512-229.2352 512-512S794.7648 0 512 0zM512 972.8C257.92 972.8 51.2 766.08 51.2 512S257.92 51.2 512 51.2s460.8 206.72 460.8 460.8S766.08 972.8 512 972.8zM358.4 256l0 256 0 256 221.696-128 221.696-128L580.096 384 358.4 256zM554.496 595.6608 409.6 679.3216 409.6 512 409.6 344.6784l144.896 83.6608L699.4048 512 554.496 595.6608z" p-id="1101" fill="#1296db"></path></svg>