<?xml version="1.0" standalone="no"?><!DOCTYPE svg PUBLIC "-//W3C//DTD SVG 1.1//EN" "http://www.w3.org/Graphics/SVG/1.1/DTD/svg11.dtd"><svg t="1601111075210" class="icon" viewBox="0 0 1024 1024" version="1.1" xmlns="http://www.w3.org/2000/svg" p-id="4658" width="32" height="32" xmlns:xlink="http://www.w3.org/1999/xlink"><defs><style type="text/css"></style></defs><path d="M512 39.384615C252.061538 39.384615 39.384615 252.061538 39.384615 512s212.676923 472.615385 472.615385 472.615385 472.615385-212.676923 472.615385-472.615385S771.938462 39.384615 512 39.384615z m0 827.076923c-194.953846 0-354.461538-159.507692-354.461538-354.461538S317.046154 157.538462 512 157.538462s354.461538 159.507692 354.461538 354.461538-159.507692 354.461538-354.461538 354.461538z m66.953846-350.523076c-5.907692-5.907692-7.876923-13.784615-7.876923-21.661539v-189.046154c0-15.753846-13.784615-29.538462-29.538461-29.538461h-59.076924c-15.753846 0-29.538462 13.784615-29.538461 29.538461v238.276923c0 7.876923 3.938462 15.753846 7.876923 21.661539l145.723077 145.723077c11.815385 11.815385 29.538462 11.815385 41.353846 0L689.230769 669.538462c11.815385-11.815385 11.815385-29.538462 0-41.353847l-110.276923-112.246153z" p-id="4659" fill="#757575"></path></svg>